<?xml version="1.0" encoding="utf-8"?>
<!-- Generator: Adobe Illustrator 26.5.0, SVG Export Plug-In . SVG Version: 6.00 Build 0)  -->
<svg version="1.1" id="Layer_1" xmlns="http://www.w3.org/2000/svg" xmlns:xlink="http://www.w3.org/1999/xlink" x="0px" y="0px"
	 width="1818.421px" height="854.482px" viewBox="0 0 1818.421 854.482" style="enable-background:new 0 0 1818.421 854.482;"
	 xml:space="preserve">
<g>
	<g>
		<text transform="matrix(1 0 0 1 128.44 130.8013)" style="font-family:'TimesNewRomanPS-ItalicMT'; font-size:40px;">1</text>
		<text transform="matrix(1 0 0 1 204.7191 393.0053)" style="font-family:'TimesNewRomanPS-ItalicMT'; font-size:40px;">2</text>
		<text transform="matrix(1 0 0 1 274.2918 653.0551)" style="font-family:'TimesNewRomanPS-ItalicMT'; font-size:40px;">3</text>
		<text transform="matrix(1 0 0 1 385.1404 786.2733)" style="font-family:'TimesNewRomanPS-ItalicMT'; font-size:40px;">4</text>
	</g>
	<g>
		<g>
			
				<line style="fill:none;stroke:#000000;stroke-linecap:round;stroke-linejoin:round;stroke-miterlimit:10;" x1="192.158" y1="393.005" x2="118.028" y2="133.113"/>
			
				<line style="fill:none;stroke:#000000;stroke-linecap:round;stroke-linejoin:round;stroke-miterlimit:10;" x1="192.158" y1="393.005" x2="374.292" y2="786.273"/>
			
				<line style="fill:none;stroke:#000000;stroke-linecap:round;stroke-linejoin:round;stroke-miterlimit:10;" x1="264.737" y1="653.055" x2="192.158" y2="393.005"/>
			<text transform="matrix(1 0 0 1 128.4396 577.9015)" style="font-family:'TimesNewRomanPS-ItalicMT'; font-size:40px;">θ</text>
			<text transform="matrix(0.583 0 0 0.583 148.0881 591.2218)" style="font-family:'TimesNewRomanPS-ItalicMT'; font-size:40px;">23</text>
			<text transform="matrix(1 0 0 1 228.4478 747.6149)" style="font-family:'TimesNewRomanPS-ItalicMT'; font-size:40px;">θ</text>
			<text transform="matrix(0.583 0 0 0.583 248.0962 760.9352)" style="font-family:'TimesNewRomanPS-ItalicMT'; font-size:40px;">24</text>
			<text transform="matrix(1 0 0 1 63.1753 314.8558)" style="font-family:'TimesNewRomanPS-ItalicMT'; font-size:40px;">θ</text>
			<text transform="matrix(0.583 0 0 0.583 82.8237 328.1761)" style="font-family:'TimesNewRomanPS-ItalicMT'; font-size:40px;">12</text>
			
				<line style="fill:none;stroke:#000000;stroke-linecap:round;stroke-linejoin:round;stroke-miterlimit:10;" x1="192.158" y1="393.005" x2="92.158" y2="393.005"/>
			<path style="fill:none;stroke:#000000;stroke-linecap:round;stroke-linejoin:round;stroke-miterlimit:10;" d="M92.158,393.005
				c0-45.714,30.674-84.264,72.564-96.189"/>
			
				<line style="fill:none;stroke:#000000;stroke-linecap:round;stroke-linejoin:round;stroke-miterlimit:10;" x1="264.737" y1="653.055" x2="164.737" y2="653.055"/>
			<path style="fill:none;stroke:#000000;stroke-linecap:round;stroke-linejoin:round;stroke-miterlimit:10;" d="M164.737,653.055
				c0-45.913,30.942-84.599,73.111-96.343"/>
			
				<line style="fill:none;stroke:#000000;stroke-linecap:round;stroke-linejoin:round;stroke-miterlimit:10;" x1="374.292" y1="786.273" x2="274.292" y2="786.273"/>
			<path style="fill:none;stroke:#000000;stroke-linecap:round;stroke-linejoin:round;stroke-miterlimit:10;" d="M274.292,786.273
				c0-40.214,23.738-74.884,57.965-90.763"/>
			<g>
				<g>
					<g>
						<path d="M118.028,137.613c2.354,0,4.609-2.07,4.5-4.5c-0.109-2.438-1.977-4.5-4.5-4.5c-2.354,0-4.609,2.07-4.5,4.5
							C113.637,135.551,115.505,137.613,118.028,137.613L118.028,137.613z"/>
					</g>
				</g>
				<g>
					<g>
						<path style="fill:#0689FF;" d="M192.158,400.505c3.923,0,7.681-3.45,7.5-7.5c-0.182-4.064-3.295-7.5-7.5-7.5
							c-3.923,0-7.681,3.45-7.5,7.5C184.84,397.069,187.954,400.505,192.158,400.505L192.158,400.505z"/>
					</g>
				</g>
				<g>
					<g>
						<path d="M264.737,657.555c2.354,0,4.609-2.07,4.5-4.5c-0.109-2.438-1.977-4.5-4.5-4.5c-2.354,0-4.609,2.07-4.5,4.5
							C260.346,655.493,262.214,657.555,264.737,657.555L264.737,657.555z"/>
					</g>
				</g>
				<g>
					<g>
						<path d="M374.292,790.773c2.354,0,4.609-2.07,4.5-4.5c-0.109-2.438-1.977-4.5-4.5-4.5c-2.354,0-4.609,2.07-4.5,4.5
							C369.901,788.711,371.769,790.773,374.292,790.773L374.292,790.773z"/>
					</g>
				</g>
			</g>
		</g>
		<g>
			
				<path style="opacity:0.3;fill:none;stroke:#000000;stroke-width:16;stroke-linecap:round;stroke-linejoin:round;stroke-miterlimit:10;" d="
				M63.176,786.273c0-45.913,30.942-84.599,73.111-96.343"/>
			
				<path style="opacity:0.3;fill:none;stroke:#000000;stroke-width:16;stroke-linecap:round;stroke-linejoin:round;stroke-miterlimit:10;" d="
				M63.176,786.273c0-40.214,23.737-74.884,57.965-90.763"/>
		</g>
	</g>
</g>
<g>
	<g>
		<polygon style="opacity:0.7;fill:#492419;" points="664.161,0 476.254,77.36 375.995,107.482 532.374,40.391 		"/>
		<polygon style="opacity:0.7;fill:#A11311;" points="705.462,142.396 664.161,0 476.254,77.36 513.142,223.521 		"/>
		<polygon style="opacity:0.7;fill:#680A06;" points="409.73,239.609 375.995,107.482 476.254,77.36 513.142,223.521 		"/>
		<polygon style="opacity:0.7;fill:#8D270A;" points="447.089,373.539 409.73,239.609 513.142,223.521 553.822,366.879 		"/>
		<polygon style="opacity:0.7;fill:#815E03;" points="590.858,511.175 481.776,504.071 447.089,373.539 553.822,366.879 		"/>
		<polygon style="opacity:0.7;fill:#E35013;" points="745.616,286.961 705.462,142.396 513.142,223.521 553.822,366.879 		"/>
		<polygon style="opacity:0.7;fill:#DEAC01;" points="784.465,426.373 590.858,511.175 553.822,366.879 745.616,286.961 		"/>
		<polygon style="opacity:0.7;fill:#0A631A;" points="632.912,652.453 590.858,511.175 784.465,426.373 818.816,565.785 		"/>
		<polygon style="opacity:0.7;fill:#001801;" points="518.973,635.324 481.776,504.071 590.858,511.175 632.912,652.453 		"/>
		<polygon style="opacity:0.7;fill:#395200;" points="665.243,772.603 630.278,694.205 595.192,663.604 546.698,647.306 
			521.093,643.536 518.973,635.324 632.912,652.453 		"/>
		<polygon style="opacity:0.7;fill:#91A804;" points="854.717,701.682 700.946,774.701 665.243,772.603 632.912,652.453 
			818.816,565.785 		"/>
		<polygon style="opacity:0.7;fill:#6E93B4;" points="700.946,774.701 728.274,772.603 755.778,772.603 781.755,790.022 
			810.023,806.197 858.155,848.501 889.098,829.837 854.717,701.682 		"/>
	</g>
	<g>
		<g>
			<g>
				
					<path style="opacity:0.3;fill:none;stroke:#000000;stroke-width:16;stroke-linecap:round;stroke-linejoin:round;stroke-miterlimit:10;" d="
					M513.204,783.962c0-45.814,30.808-84.432,72.837-96.267"/>
				
					<path style="opacity:0.3;fill:none;stroke:#000000;stroke-width:16;stroke-linecap:round;stroke-linejoin:round;stroke-miterlimit:10;" d="
					M513.142,783.962c0-31.108,14.204-58.898,36.481-77.239"/>
			</g>
			<g>
				<g>
					<g>
						<g>
							<path d="M585.837,135.302c2.354,0,4.609-2.07,4.5-4.5c-0.109-2.438-1.977-4.5-4.5-4.5c-2.354,0-4.609,2.07-4.5,4.5
								C581.446,133.24,583.314,135.302,585.837,135.302L585.837,135.302z"/>
						</g>
					</g>
					<g>
						<g>
							<path d="M659.967,395.194c2.354,0,4.609-2.07,4.5-4.5c-0.109-2.438-1.977-4.5-4.5-4.5c-2.354,0-4.609,2.07-4.5,4.5
								C655.577,393.133,657.445,395.194,659.967,395.194L659.967,395.194z"/>
						</g>
					</g>
					<g>
						<g>
							<path d="M732.546,658.244c3.923,0,7.681-3.45,7.5-7.5c-0.182-4.064-3.295-7.5-7.5-7.5c-3.923,0-7.681,3.45-7.5,7.5
								C725.228,654.807,728.342,658.244,732.546,658.244L732.546,658.244z"/>
						</g>
					</g>
					<g>
						<g>
							<path d="M842.101,788.462c2.354,0,4.609-2.07,4.5-4.5c-0.109-2.438-1.977-4.5-4.5-4.5c-2.354,0-4.609,2.07-4.5,4.5
								C837.71,786.4,839.578,788.462,842.101,788.462L842.101,788.462z"/>
						</g>
					</g>
				</g>
				
					<line style="fill:none;stroke:#000000;stroke-linecap:round;stroke-linejoin:round;stroke-miterlimit:10;" x1="732.546" y1="650.744" x2="659.967" y2="390.694"/>
				
					<line style="fill:none;stroke:#000000;stroke-linecap:round;stroke-linejoin:round;stroke-miterlimit:10;" x1="585.837" y1="130.802" x2="732.546" y2="650.744"/>
				
					<line style="fill:none;stroke:#000000;stroke-linecap:round;stroke-linejoin:round;stroke-miterlimit:10;" x1="842.101" y1="783.962" x2="732.546" y2="650.744"/>
				<path style="fill:none;stroke:#000000;stroke-linecap:round;stroke-linejoin:round;stroke-miterlimit:10;" d="M632.546,650.744
					c0-45.814,30.808-84.432,72.837-96.267"/>
				<path style="fill:none;stroke:#000000;stroke-linecap:round;stroke-linejoin:round;stroke-miterlimit:10;" d="M742.101,783.962
					c0-31.108,14.204-58.898,36.481-77.239"/>
				
					<line style="fill:none;stroke:#000000;stroke-linecap:round;stroke-linejoin:round;stroke-miterlimit:10;" x1="732.546" y1="650.744" x2="632.546" y2="650.744"/>
				
					<line style="fill:none;stroke:#000000;stroke-linecap:round;stroke-linejoin:round;stroke-miterlimit:10;" x1="842.101" y1="783.962" x2="742.101" y2="783.962"/>
				<text transform="matrix(1 0 0 1 586.5174 583.6395)" style="font-family:'TimesNewRomanPS-ItalicMT'; font-size:40px;">θ</text>
				<text transform="matrix(0.583 0 0 0.583 606.1658 596.9598)" style="font-family:'TimesNewRomanPS-ItalicMT'; font-size:40px;">13</text>
				<text transform="matrix(1 0 0 1 692.0197 753.8312)" style="font-family:'TimesNewRomanPS-ItalicMT'; font-size:40px;">θ</text>
				<text transform="matrix(0.583 0 0 0.583 711.6681 767.1516)" style="font-family:'TimesNewRomanPS-ItalicMT'; font-size:40px;">34</text>
				<text transform="matrix(1 0 0 1 632.5466 534.2955)" style="font-family:'TimesNewRomanPS-ItalicMT'; font-size:40px;">θ</text>
				<text transform="matrix(0.583 0 0 0.583 652.1951 547.6158)" style="font-family:'TimesNewRomanPS-ItalicMT'; font-size:40px;">23</text>
			</g>
		</g>
		<g>
			<text transform="matrix(1 0 0 1 595.4167 130.8021)" style="font-family:'TimesNewRomanPS-ItalicMT'; font-size:40px;">1</text>
			<text transform="matrix(1 0 0 1 671.6959 393.006)" style="font-family:'TimesNewRomanPS-ItalicMT'; font-size:40px;">2</text>
			<text transform="matrix(1 0 0 1 741.2686 653.0558)" style="font-family:'TimesNewRomanPS-ItalicMT'; font-size:40px;">3</text>
			<text transform="matrix(1 0 0 1 852.1169 786.274)" style="font-family:'TimesNewRomanPS-ItalicMT'; font-size:40px;">4</text>
		</g>
	</g>
</g>
<g>
	<g>
		<g>
			
				<path style="opacity:0.2;fill:none;stroke:#000000;stroke-width:16;stroke-linecap:round;stroke-linejoin:round;stroke-miterlimit:10;" d="
				M973.188,785.118c0-42.335,26.307-78.526,63.466-93.116"/>
			
				<path style="opacity:0.2;fill:none;stroke:#000000;stroke-width:16;stroke-linecap:round;stroke-linejoin:round;stroke-miterlimit:10;" d="
				M973.188,785.118c0-40.214,23.738-74.884,57.965-90.763"/>
			
				<path style="opacity:0.2;fill:none;stroke:#000000;stroke-width:16;stroke-linecap:round;stroke-linejoin:round;stroke-miterlimit:10;" d="
				M973.188,785.118c0-31.066,14.166-58.823,36.391-77.165"/>
		</g>
		<g>
			<g>
				<g>
					<g>
						<path d="M1022.523,136.458c2.354,0,4.609-2.07,4.5-4.5c-0.109-2.438-1.977-4.5-4.5-4.5c-2.354,0-4.609,2.07-4.5,4.5
							C1018.133,134.396,1020.001,136.458,1022.523,136.458L1022.523,136.458z"/>
					</g>
				</g>
				<g>
					<g>
						<path d="M1096.654,396.351c2.354,0,4.609-2.07,4.5-4.5c-0.109-2.438-1.977-4.5-4.5-4.5c-2.354,0-4.609,2.07-4.5,4.5
							C1092.263,394.289,1094.131,396.351,1096.654,396.351L1096.654,396.351z"/>
					</g>
				</g>
				<g>
					<g>
						<path d="M1169.233,656.4c2.354,0,4.609-2.07,4.5-4.5c-0.109-2.438-1.977-4.5-4.5-4.5c-2.354,0-4.609,2.07-4.5,4.5
							C1164.842,654.338,1166.71,656.4,1169.233,656.4L1169.233,656.4z"/>
					</g>
				</g>
				<g>
					<g>
						<path d="M1278.787,792.618c3.923,0,7.681-3.45,7.5-7.5c-0.182-4.064-3.295-7.5-7.5-7.5c-3.923,0-7.681,3.45-7.5,7.5
							C1271.469,789.182,1274.583,792.618,1278.787,792.618L1278.787,792.618z"/>
					</g>
				</g>
			</g>
			<text transform="matrix(1 0 0 1 938.8608 188.7551)" style="font-family:'TimesNewRomanPS-ItalicMT'; font-size:40px;">θ</text>
			<text transform="matrix(0.583 0 0 0.583 958.5092 202.0754)" style="font-family:'TimesNewRomanPS-ItalicMT'; font-size:40px;">14</text>
			<text transform="matrix(1 0 0 1 1096.6547 693.1562)" style="font-family:'TimesNewRomanPS-ItalicMT'; font-size:40px;">θ</text>
			<text transform="matrix(0.583 0 0 0.583 1116.3031 706.4765)" style="font-family:'TimesNewRomanPS-ItalicMT'; font-size:40px;">34</text>
			<text transform="matrix(1 0 0 1 1021.3883 452.0501)" style="font-family:'TimesNewRomanPS-ItalicMT'; font-size:40px;">θ</text>
			<text transform="matrix(0.583 0 0 0.583 1041.0367 465.3705)" style="font-family:'TimesNewRomanPS-ItalicMT'; font-size:40px;">24</text>
			
				<line style="fill:none;stroke:#000000;stroke-linecap:round;stroke-linejoin:round;stroke-miterlimit:10;" x1="1278.787" y1="785.118" x2="1169.233" y2="651.9"/>
			
				<line style="fill:none;stroke:#000000;stroke-linecap:round;stroke-linejoin:round;stroke-miterlimit:10;" x1="1096.654" y1="391.851" x2="1278.787" y2="785.118"/>
			
				<line style="fill:none;stroke:#000000;stroke-linecap:round;stroke-linejoin:round;stroke-miterlimit:10;" x1="1022.523" y1="131.958" x2="1278.787" y2="785.118"/>
			<path style="fill:none;stroke:#000000;stroke-linecap:round;stroke-linejoin:round;stroke-miterlimit:10;" d="M974.496,264.426
				c0-42.335,26.307-78.526,63.466-93.116"/>
			
				<line style="fill:none;stroke:#000000;stroke-linecap:round;stroke-linejoin:round;stroke-miterlimit:10;" x1="974.496" y1="264.426" x2="1074.496" y2="264.426"/>
			<path style="fill:none;stroke:#000000;stroke-linecap:round;stroke-linejoin:round;stroke-miterlimit:10;" d="M1056.357,520.763
				c0-40.214,23.737-74.884,57.965-90.763"/>
			
				<line style="fill:none;stroke:#000000;stroke-linecap:round;stroke-linejoin:round;stroke-miterlimit:10;" x1="1056.357" y1="520.763" x2="1156.357" y2="520.763"/>
			<path style="fill:none;stroke:#000000;stroke-linecap:round;stroke-linejoin:round;stroke-miterlimit:10;" d="M1140.481,738.538
				c0-31.066,14.166-58.823,36.391-77.165"/>
			
				<line style="fill:none;stroke:#000000;stroke-linecap:round;stroke-linejoin:round;stroke-miterlimit:10;" x1="1140.481" y1="738.538" x2="1240.481" y2="738.538"/>
		</g>
	</g>
	<g>
		<text transform="matrix(1 0 0 1 1030.3276 130.8021)" style="font-family:'TimesNewRomanPS-ItalicMT'; font-size:40px;">1</text>
		<text transform="matrix(1 0 0 1 1067.8694 394.1626)" style="font-family:'TimesNewRomanPS-ItalicMT'; font-size:40px;">2</text>
		<text transform="matrix(1 0 0 1 1177.4983 651.9004)" style="font-family:'TimesNewRomanPS-ItalicMT'; font-size:40px;">3</text>
		<text transform="matrix(1 0 0 1 1287.0277 786.274)" style="font-family:'TimesNewRomanPS-ItalicMT'; font-size:40px;">4</text>
	</g>
</g>
<g>
	<g>
		<g>
			
				<path style="opacity:0.3;fill:none;stroke:#000000;stroke-width:16;stroke-linecap:round;stroke-linejoin:round;stroke-miterlimit:10;" d="
				M1403.608,775.516c0-45.814,30.808-84.432,72.837-96.267"/>
			
				<path style="opacity:0.3;fill:none;stroke:#000000;stroke-width:16;stroke-linecap:round;stroke-linejoin:round;stroke-miterlimit:10;" d="
				M1403.608,775.516c0-42.335,26.307-78.526,63.466-93.116"/>
		</g>
		<g>
			<g>
				<g>
					<g>
						<path style="fill:#0689FF;" d="M1452.943,129.856c3.923,0,7.681-3.45,7.5-7.5c-0.182-4.064-3.295-7.5-7.5-7.5
							c-3.923,0-7.682,3.45-7.5,7.5C1445.625,126.42,1448.739,129.856,1452.943,129.856L1452.943,129.856z"/>
					</g>
				</g>
				<g>
					<g>
						<path d="M1527.073,386.748c2.354,0,4.609-2.07,4.5-4.5c-0.109-2.438-1.977-4.5-4.5-4.5c-2.354,0-4.609,2.07-4.5,4.5
							C1522.682,384.687,1524.551,386.748,1527.073,386.748L1527.073,386.748z"/>
					</g>
				</g>
				<g>
					<g>
						<path d="M1599.652,646.798c2.354,0,4.609-2.07,4.5-4.5c-0.109-2.438-1.977-4.5-4.5-4.5c-2.354,0-4.609,2.07-4.5,4.5
							C1595.262,644.736,1597.13,646.798,1599.652,646.798L1599.652,646.798z"/>
					</g>
				</g>
				<g>
					<g>
						<path d="M1709.207,780.016c2.354,0,4.609-2.07,4.5-4.5c-0.109-2.438-1.977-4.5-4.5-4.5c-2.354,0-4.609,2.07-4.5,4.5
							C1704.816,777.954,1706.684,780.016,1709.207,780.016L1709.207,780.016z"/>
					</g>
				</g>
			</g>
			<text transform="matrix(1 0 0 1 1453.5278 569.0916)" style="font-family:'TimesNewRomanPS-ItalicMT'; font-size:40px;">θ</text>
			<text transform="matrix(0.583 0 0 0.583 1473.1763 582.4119)" style="font-family:'TimesNewRomanPS-ItalicMT'; font-size:40px;">12</text>
			<text transform="matrix(1 0 0 1 1572.4897 713.6849)" style="font-family:'TimesNewRomanPS-ItalicMT'; font-size:40px;">θ</text>
			<text transform="matrix(0.583 0 0 0.583 1592.1382 727.0052)" style="font-family:'TimesNewRomanPS-ItalicMT'; font-size:40px;">14</text>
			<text transform="matrix(1 0 0 1 1499.6531 532.3285)" style="font-family:'TimesNewRomanPS-ItalicMT'; font-size:40px;">θ</text>
			<text transform="matrix(0.583 0 0 0.583 1519.3015 545.6488)" style="font-family:'TimesNewRomanPS-ItalicMT'; font-size:40px;">13</text>
			
				<line style="fill:none;stroke:#000000;stroke-linecap:round;stroke-linejoin:round;stroke-miterlimit:10;" x1="1452.943" y1="122.356" x2="1527.073" y2="382.248"/>
			
				<line style="fill:none;stroke:#000000;stroke-linecap:round;stroke-linejoin:round;stroke-miterlimit:10;" x1="1599.652" y1="642.298" x2="1452.943" y2="122.356"/>
			
				<line style="fill:none;stroke:#000000;stroke-linecap:round;stroke-linejoin:round;stroke-miterlimit:10;" x1="1709.207" y1="775.516" x2="1452.943" y2="122.356"/>
			<path style="fill:none;stroke:#000000;stroke-linecap:round;stroke-linejoin:round;stroke-miterlimit:10;" d="M1499.652,642.298
				c0-45.814,30.808-84.432,72.837-96.267"/>
			<path style="fill:none;stroke:#000000;stroke-linecap:round;stroke-linejoin:round;stroke-miterlimit:10;" d="M1609.207,775.516
				c0-42.335,26.307-78.526,63.466-93.116"/>
			
				<line style="fill:none;stroke:#000000;stroke-linecap:round;stroke-linejoin:round;stroke-miterlimit:10;" x1="1599.652" y1="642.298" x2="1499.652" y2="642.298"/>
			
				<line style="fill:none;stroke:#000000;stroke-linecap:round;stroke-linejoin:round;stroke-miterlimit:10;" x1="1709.207" y1="775.516" x2="1609.207" y2="775.516"/>
		</g>
	</g>
	<g>
		<text transform="matrix(1 0 0 1 1462.3679 122.3563)" style="font-family:'TimesNewRomanPS-ItalicMT'; font-size:40px;">1</text>
		<text transform="matrix(1 0 0 1 1497.0521 382.2487)" style="font-family:'TimesNewRomanPS-ItalicMT'; font-size:40px;">2</text>
		<text transform="matrix(1 0 0 1 1609.5387 643.4546)" style="font-family:'TimesNewRomanPS-ItalicMT'; font-size:40px;">3</text>
		<text transform="matrix(1 0 0 1 1719.0681 777.8283)" style="font-family:'TimesNewRomanPS-ItalicMT'; font-size:40px;">4</text>
	</g>
</g>
</svg>
