<?xml version="1.0" encoding="utf-8"?>
<!-- Generator: Adobe Illustrator 26.5.0, SVG Export Plug-In . SVG Version: 6.00 Build 0)  -->
<svg version="1.1" id="Layer_1" xmlns="http://www.w3.org/2000/svg" xmlns:xlink="http://www.w3.org/1999/xlink" x="0px" y="0px"
	 width="529px" height="396.9px" viewBox="0 0 529 396.9" style="enable-background:new 0 0 529 396.9;" xml:space="preserve">
<style type="text/css">
	.st0{fill:#FFFFFF;}
	.st1{fill:none;stroke:#FF00F7;stroke-width:1.3;stroke-miterlimit:10;}
</style>
<g>
	<g>
		<g transform="matrix(0.5,0,0,0.4997,102.5,65.0625)">
			<g>
				<defs>
					<rect id="SVGID_1_" x="-72.8" y="-30.9" width="264.5" height="198.4"/>
				</defs>
				<clipPath id="SVGID_00000080920287666883945510000005054175234986078883_">
					<use xlink:href="#SVGID_1_"  style="overflow:visible;"/>
				</clipPath>
				<g style="clip-path:url(#SVGID_00000080920287666883945510000005054175234986078883_);enable-background:new    ;">
					
						<image style="overflow:visible;" width="529" height="397" xlink:href="1FDB33A629B16CF1.png"  transform="matrix(1 0 0 1 -205 -130.2031)">
					</image>
				</g>
			</g>
		</g>
		<g transform="translate(170.5651,137.8096)">
			<path d="M-102.5-67.3c1.2,0,2.2,1,2.2,2.2l0,0c0,1.2-1,2.2-2.2,2.2s-2.2-1-2.2-2.2S-103.7-67.3-102.5-67.3z M-102.5-70.8
				c-3.2,0-5.8,2.6-5.8,5.8s2.6,5.8,5.8,5.8s5.8-2.6,5.8-5.8l0,0C-96.8-68.2-99.3-70.8-102.5-70.8z"/>
			<path d="M-112.4-91.3c1.2,0,2.2,1,2.2,2.2l0,0c0,1.2-1,2.2-2.2,2.2c-1.2,0-2.2-1-2.2-2.2S-113.6-91.3-112.4-91.3z M-112.4-94.8
				c-3.2,0-5.8,2.6-5.8,5.8s2.6,5.8,5.8,5.8c3.2,0,5.8-2.6,5.8-5.8l0,0C-106.7-92.2-109.2-94.8-112.4-94.8z"/>
			<path d="M-90-78.2c1.2,0,2.2,1,2.2,2.2l0,0c0,1.2-1,2.2-2.2,2.2s-2.2-1-2.2-2.2S-91.2-78.2-90-78.2z M-90-81.7
				c-3.2,0-5.8,2.6-5.8,5.8c0,3.2,2.6,5.8,5.8,5.8c3.2,0,5.8-2.6,5.8-5.8l0,0C-84.2-79.2-86.8-81.7-90-81.7z"/>
			<path d="M-78.7-87.8c1.2,0,2.2,1,2.2,2.2l0,0c0,1.2-1,2.2-2.2,2.2s-2.2-1-2.2-2.2C-81-86.8-80-87.8-78.7-87.8z M-78.7-91.3
				c-3.2,0-5.8,2.6-5.8,5.8c0,3.2,2.6,5.8,5.8,5.8c3.2,0,5.8-2.6,5.8-5.8l0,0C-73-88.8-75.6-91.3-78.7-91.3z"/>
			<path d="M55.6-70.8c1.2,0,2.2,1,2.2,2.2l0,0c0,1.2-1,2.2-2.2,2.2s-2.2-1-2.2-2.2S54.3-70.8,55.6-70.8z M55.6-74.3
				c-3.2,0-5.8,2.6-5.8,5.8s2.6,5.8,5.8,5.8c3.2,0,5.8-2.6,5.8-5.8l0,0C61.3-71.8,58.8-74.3,55.6-74.3z"/>
			<path d="M-69.8-99.7c1.2,0,2.2,1,2.2,2.2l0,0c0,1.2-1,2.2-2.2,2.2c-1.2,0-2.2-1-2.2-2.2S-71.1-99.7-69.8-99.7z M-69.8-103.2
				c-3.2,0-5.8,2.6-5.8,5.8s2.6,5.8,5.8,5.8c3.2,0,5.8-2.6,5.8-5.8l0,0C-64.1-100.6-66.6-103.2-69.8-103.2z"/>
			<path d="M-60-108.7c1.2,0,2.2,1,2.2,2.2l0,0c0,1.2-1,2.2-2.2,2.2s-2.2-1-2.2-2.2S-61.2-108.7-60-108.7z M-60-112.2
				c-3.2,0-5.8,2.6-5.8,5.8s2.6,5.8,5.8,5.8c3.2,0,5.8-2.6,5.8-5.8l0,0C-54.2-109.6-56.8-112.2-60-112.2z"/>
			<path d="M-66.8,10.8c1.2,0,2.2,1,2.2,2.2l0,0c0,1.2-1,2.2-2.2,2.2s-2.2-1-2.2-2.2S-68,10.8-66.8,10.8z M-66.8,7.3
				c-3.2,0-5.8,2.6-5.8,5.8s2.6,5.8,5.8,5.8S-61,16.2-61,13l0,0C-61,9.9-63.6,7.3-66.8,7.3z"/>
			<path d="M-48.9-116.1c1.2,0,2.2,1,2.2,2.2l0,0c0,1.2-1,2.2-2.2,2.2s-2.2-1-2.2-2.2C-51.1-115.1-50.1-116.1-48.9-116.1z
				 M-48.9-119.6c-3.2,0-5.8,2.6-5.8,5.8c0,3.2,2.6,5.8,5.8,5.8c3.2,0,5.8-2.6,5.8-5.8l0,0C-43.1-117-45.7-119.6-48.9-119.6z"/>
			<path d="M-11.6-96.7c1.2,0,2.2,1,2.2,2.2l0,0c0,1.2-1,2.2-2.2,2.2s-2.2-1-2.2-2.2C-13.9-95.7-12.9-96.7-11.6-96.7z M-11.6-100.2
				c-3.2,0-5.8,2.6-5.8,5.8c0,3.2,2.6,5.8,5.8,5.8s5.8-2.6,5.8-5.8l0,0C-5.9-97.6-8.5-100.2-11.6-100.2z"/>
			<path class="st0" d="M-102.5-67.3c1.2,0,2.2,1,2.2,2.2l0,0c0,1.2-1,2.2-2.2,2.2s-2.2-1-2.2-2.2S-103.7-67.3-102.5-67.3z
				 M-102.5-70.8c-3.2,0-5.8,2.6-5.8,5.8s2.6,5.8,5.8,5.8s5.8-2.6,5.8-5.8l0,0C-96.8-68.2-99.3-70.8-102.5-70.8z"/>
			<path class="st0" d="M-90-78.2c1.2,0,2.2,1,2.2,2.2l0,0c0,1.2-1,2.2-2.2,2.2s-2.2-1-2.2-2.2S-91.2-78.2-90-78.2z M-90-81.7
				c-3.2,0-5.8,2.6-5.8,5.8c0,3.2,2.6,5.8,5.8,5.8c3.2,0,5.8-2.6,5.8-5.8l0,0C-84.2-79.2-86.8-81.7-90-81.7z"/>
			<path class="st0" d="M-78.7-87.8c1.2,0,2.2,1,2.2,2.2l0,0c0,1.2-1,2.2-2.2,2.2s-2.2-1-2.2-2.2C-81-86.8-80-87.8-78.7-87.8z
				 M-78.7-91.3c-3.2,0-5.8,2.6-5.8,5.8c0,3.2,2.6,5.8,5.8,5.8c3.2,0,5.8-2.6,5.8-5.8l0,0C-73-88.8-75.6-91.3-78.7-91.3z"/>
			<path class="st0" d="M-69.8-99.7c1.2,0,2.2,1,2.2,2.2l0,0c0,1.2-1,2.2-2.2,2.2c-1.2,0-2.2-1-2.2-2.2S-71.1-99.7-69.8-99.7z
				 M-69.8-103.2c-3.2,0-5.8,2.6-5.8,5.8s2.6,5.8,5.8,5.8c3.2,0,5.8-2.6,5.8-5.8l0,0C-64.1-100.6-66.6-103.2-69.8-103.2z"/>
			<path class="st0" d="M-60-108.7c1.2,0,2.2,1,2.2,2.2l0,0c0,1.2-1,2.2-2.2,2.2s-2.2-1-2.2-2.2S-61.2-108.7-60-108.7z M-60-112.2
				c-3.2,0-5.8,2.6-5.8,5.8s2.6,5.8,5.8,5.8c3.2,0,5.8-2.6,5.8-5.8l0,0C-54.2-109.6-56.8-112.2-60-112.2z"/>
			<path class="st0" d="M-48.9-116.1c1.2,0,2.2,1,2.2,2.2l0,0c0,1.2-1,2.2-2.2,2.2s-2.2-1-2.2-2.2
				C-51.1-115.1-50.1-116.1-48.9-116.1z M-48.9-119.6c-3.2,0-5.8,2.6-5.8,5.8c0,3.2,2.6,5.8,5.8,5.8c3.2,0,5.8-2.6,5.8-5.8l0,0
				C-43.1-117-45.7-119.6-48.9-119.6z"/>
		</g>
		<g transform="translate(170.5651,137.8096)">
			<path class="st1" d="M-102.5-68.1v6 M-105.5-65.1h6 M-104.6-67.2l4.2,4.2 M-104.6-62.9l4.2-4.2"/>
			<path class="st1" d="M-112.4-92v6 M-115.4-89h6 M-114.5-91.1l4.2,4.2 M-114.5-86.9l4.2-4.2"/>
			<path class="st1" d="M-90-79v6 M-93-76h6 M-92.1-78.1l4.2,4.2 M-92.1-73.9l4.2-4.2"/>
			<path class="st1" d="M-78.7-88.6v6 M-81.7-85.6h6 M-80.9-87.7l4.2,4.2 M-80.9-83.5l4.2-4.2"/>
			<path class="st1" d="M55.6-71.6v6 M52.6-68.6h6 M53.5-70.7l4.2,4.2 M53.5-66.5l4.2-4.2"/>
			<path class="st1" d="M-69.8-100.4v6 M-72.8-97.4h6 M-71.9-99.6l4.2,4.2 M-71.9-95.3l4.2-4.2"/>
			<path class="st1" d="M-60-109.4v6 M-63-106.4h6 M-62.1-108.6l4.2,4.2 M-62.1-104.3l4.2-4.2"/>
			<path class="st1" d="M-66.8,10v6 M-69.8,13h6 M-68.9,10.9l4.2,4.2 M-68.9,15.2l4.2-4.2"/>
			<path class="st1" d="M-48.9-116.9v6 M-51.9-113.9h6 M-51-116l4.2,4.2 M-51-111.7l4.2-4.2"/>
			<path class="st1" d="M-11.6-97.4v6 M-14.6-94.4h6 M-13.8-96.5l4.2,4.2 M-13.8-92.3l4.2-4.2"/>
		</g>
	</g>
	<g>
		<g transform="matrix(0.5,0,0,0.4997,450.5,65.0625)">
			<g>
				<defs>
					<rect id="SVGID_00000099655389023991843730000017788502424170662546_" x="-239.8" y="-30.9" width="264.5" height="198.4"/>
				</defs>
				<clipPath id="SVGID_00000183239042151382319660000004758481754047493292_">
					<use xlink:href="#SVGID_00000099655389023991843730000017788502424170662546_"  style="overflow:visible;"/>
				</clipPath>
				<g style="clip-path:url(#SVGID_00000183239042151382319660000004758481754047493292_);enable-background:new    ;">
					
						<image style="overflow:visible;" width="529" height="397" xlink:href="1FDB33A629B16CF3.png"  transform="matrix(1 0 0 1 -372 -130.2031)">
					</image>
				</g>
			</g>
		</g>
		<g transform="translate(684.4878,173.9495)">
			<path d="M-186-67.3c1.2,0,2.2,1,2.2,2.2l0,0c0,1.2-1,2.2-2.2,2.2s-2.2-1-2.2-2.2S-187.2-67.3-186-67.3z M-186-70.8
				c-3.2,0-5.8,2.6-5.8,5.8c0,3.2,2.6,5.8,5.8,5.8s5.8-2.6,5.8-5.8l0,0C-180.2-68.2-182.8-70.8-186-70.8z"/>
			<path d="M-204.7-65.1c1.2,0,2.2,1,2.2,2.2l0,0c0,1.2-1,2.2-2.2,2.2s-2.2-1-2.2-2.2C-207-64.1-206-65.1-204.7-65.1z M-204.7-68.6
				c-3.2,0-5.8,2.6-5.8,5.7s2.6,5.8,5.8,5.8s5.8-2.6,5.8-5.8l0,0C-199-66.1-201.6-68.6-204.7-68.6z"/>
			<path d="M-329.5-98.6c1.2,0,2.2,1,2.2,2.2l0,0c0,1.2-1,2.2-2.2,2.2s-2.2-1-2.2-2.2S-330.8-98.6-329.5-98.6z M-329.5-102.1
				c-3.2,0-5.8,2.6-5.8,5.8s2.6,5.8,5.8,5.8s5.8-2.6,5.8-5.8l0,0C-323.8-99.5-326.4-102.1-329.5-102.1z"/>
			<path d="M-297.2-102.8c1.2,0,2.2,1,2.2,2.2l0,0c0,1.2-1,2.2-2.2,2.2c-1.2,0-2.2-1-2.2-2.2S-298.5-102.8-297.2-102.8z
				 M-297.2-106.3c-3.2,0-5.8,2.6-5.8,5.8s2.6,5.8,5.8,5.8s5.8-2.6,5.8-5.8l0,0C-291.5-103.8-294-106.3-297.2-106.3z"/>
			<path d="M-269.2-119.6c1.2,0,2.2,1,2.2,2.2l0,0c0,1.2-1,2.2-2.2,2.2s-2.2-1-2.2-2.2S-270.4-119.6-269.2-119.6z M-269.2-123.1
				c-3.2,0-5.8,2.6-5.8,5.8s2.6,5.8,5.8,5.8s5.8-2.6,5.8-5.8l0,0C-263.5-120.5-266-123.1-269.2-123.1z"/>
			<path d="M-213.2-74.7c1.2,0,2.2,1,2.2,2.2l0,0c0,1.2-1,2.2-2.2,2.2s-2.2-1-2.2-2.2S-214.5-74.7-213.2-74.7z M-213.2-78.2
				c-3.2,0-5.8,2.6-5.8,5.8s2.6,5.8,5.8,5.8s5.8-2.6,5.8-5.8l0,0C-207.5-75.7-210-78.2-213.2-78.2z"/>
			<path d="M-195-127.7c1.2,0,2.2,1,2.2,2.2l0,0c0,1.2-1,2.2-2.2,2.2s-2.2-1-2.2-2.2S-196.3-127.7-195-127.7z M-195-131.2
				c-3.2,0-5.8,2.6-5.8,5.8s2.6,5.8,5.8,5.8s5.8-2.6,5.8-5.8l0,0C-189.3-128.7-191.9-131.2-195-131.2z"/>
			<path d="M-225.9-80.9c1.2,0,2.2,1,2.2,2.2l0,0c0,1.2-1,2.2-2.2,2.2c-1.2,0-2.2-1-2.2-2.2S-227.1-80.9-225.9-80.9z M-225.9-84.4
				c-3.2,0-5.8,2.6-5.8,5.8c0,3.2,2.6,5.8,5.8,5.8c3.2,0,5.8-2.6,5.8-5.8l0,0C-220.1-81.8-222.7-84.4-225.9-84.4z"/>
			<path d="M-250.6-163.1c1.2,0,2.2,1,2.2,2.2l0,0c0,1.2-1,2.2-2.2,2.2s-2.2-1-2.2-2.2S-251.8-163.1-250.6-163.1z M-250.6-166.6
				c-3.2,0-5.8,2.6-5.8,5.8s2.6,5.8,5.8,5.8s5.8-2.6,5.8-5.8l0,0C-244.8-164.1-247.4-166.6-250.6-166.6z"/>
			<path d="M-382.9-19.6c1.2,0,2.2,1,2.2,2.2l0,0c0,1.2-1,2.2-2.2,2.2s-2.2-1-2.2-2.2S-384.1-19.6-382.9-19.6z M-382.9-23.1
				c-3.2,0-5.8,2.6-5.8,5.8s2.6,5.8,5.8,5.8s5.8-2.6,5.8-5.8l0,0C-377.1-20.6-379.7-23.1-382.9-23.1z"/>
			<path d="M-327.4,15c1.2,0,2.2,1,2.2,2.2l0,0c0,1.2-1,2.2-2.2,2.2c-1.2,0-2.2-1-2.2-2.2S-328.6,15-327.4,15z M-327.4,11.5
				c-3.2,0-5.8,2.6-5.8,5.8s2.6,5.8,5.8,5.8c3.2,0,5.8-2.6,5.8-5.8l0,0C-321.6,14.1-324.2,11.5-327.4,11.5z"/>
			<path d="M-277.3-107.4c1.2,0,2.2,1,2.2,2.2l0,0c0,1.2-1,2.2-2.2,2.2c-1.2,0-2.2-1-2.2-2.2C-279.5-106.4-278.5-107.4-277.3-107.4z
				 M-277.3-110.9c-3.2,0-5.8,2.6-5.8,5.8c0,3.2,2.6,5.8,5.8,5.8c3.2,0,5.8-2.6,5.8-5.8l0,0C-271.5-108.3-274.1-110.9-277.3-110.9z"
				/>
			<path d="M-256.7-86.8c1.2,0,2.2,1,2.2,2.2l0,0c0,1.2-1,2.2-2.2,2.2c-1.2,0-2.2-1-2.2-2.2S-257.9-86.8-256.7-86.8z M-256.7-90.3
				c-3.2,0-5.8,2.6-5.8,5.8c0,3.2,2.6,5.8,5.8,5.8c3.2,0,5.8-2.6,5.8-5.8l0,0C-250.9-87.8-253.5-90.3-256.7-90.3z"/>
			<path class="st0" d="M-186-67.3c1.2,0,2.2,1,2.2,2.2l0,0c0,1.2-1,2.2-2.2,2.2s-2.2-1-2.2-2.2S-187.2-67.3-186-67.3z M-186-70.8
				c-3.2,0-5.8,2.6-5.8,5.8c0,3.2,2.6,5.8,5.8,5.8s5.8-2.6,5.8-5.8l0,0C-180.2-68.2-182.8-70.8-186-70.8z"/>
			<path class="st0" d="M-204.7-65.1c1.2,0,2.2,1,2.2,2.2l0,0c0,1.2-1,2.2-2.2,2.2s-2.2-1-2.2-2.2C-207-64.1-206-65.1-204.7-65.1z
				 M-204.7-68.6c-3.2,0-5.8,2.6-5.8,5.7s2.6,5.8,5.8,5.8s5.8-2.6,5.8-5.8l0,0C-199-66.1-201.6-68.6-204.7-68.6z"/>
			<path class="st0" d="M-213.2-74.7c1.2,0,2.2,1,2.2,2.2l0,0c0,1.2-1,2.2-2.2,2.2s-2.2-1-2.2-2.2S-214.5-74.7-213.2-74.7z
				 M-213.2-78.2c-3.2,0-5.8,2.6-5.8,5.8s2.6,5.8,5.8,5.8s5.8-2.6,5.8-5.8l0,0C-207.5-75.7-210-78.2-213.2-78.2z"/>
			<path class="st0" d="M-225.9-80.9c1.2,0,2.2,1,2.2,2.2l0,0c0,1.2-1,2.2-2.2,2.2c-1.2,0-2.2-1-2.2-2.2S-227.1-80.9-225.9-80.9z
				 M-225.9-84.4c-3.2,0-5.8,2.6-5.8,5.8c0,3.2,2.6,5.8,5.8,5.8c3.2,0,5.8-2.6,5.8-5.8l0,0C-220.1-81.8-222.7-84.4-225.9-84.4z"/>
			<path class="st0" d="M-256.7-86.8c1.2,0,2.2,1,2.2,2.2l0,0c0,1.2-1,2.2-2.2,2.2c-1.2,0-2.2-1-2.2-2.2S-257.9-86.8-256.7-86.8z
				 M-256.7-90.3c-3.2,0-5.8,2.6-5.8,5.8c0,3.2,2.6,5.8,5.8,5.8c3.2,0,5.8-2.6,5.8-5.8l0,0C-250.9-87.8-253.5-90.3-256.7-90.3z"/>
			<path class="st1" d="M-186-68.1v6 M-189-65.1h6 M-188.1-67.2l4.2,4.2 M-188.1-62.9l4.2-4.2"/>
			<path class="st1" d="M-204.7-65.9v6 M-207.7-62.9h6 M-206.8-65l4.2,4.2 M-206.8-60.8l4.2-4.2"/>
			<path class="st1" d="M-329.5-99.3v6 M-332.5-96.3h6 M-331.7-98.5l4.2,4.2 M-331.7-94.2l4.2-4.2"/>
			<path class="st1" d="M-297.2-103.6v6 M-300.2-100.6h6 M-299.3-102.7l4.2,4.2 M-299.3-98.5l4.2-4.2"/>
			<path class="st1" d="M-269.2-120.4v6 M-272.2-117.4h6 M-271.3-119.5l4.2,4.2 M-271.3-115.3l4.2-4.2"/>
			<path class="st1" d="M-213.2-75.5v6 M-216.2-72.5h6 M-215.3-74.6l4.2,4.2 M-215.3-70.4l4.2-4.2"/>
			<path class="st1" d="M-195-128.5v6 M-198-125.5h6 M-197.1-127.6l4.2,4.2 M-197.1-123.4l4.2-4.2"/>
			<path class="st1" d="M-225.9-81.7v6 M-228.9-78.7h6 M-228-80.8l4.2,4.2 M-228-76.6l4.2-4.2"/>
			<path class="st1" d="M-250.6-163.9v6 M-253.6-160.9h6 M-252.7-163l4.2,4.2 M-252.7-158.8l4.2-4.2"/>
			<path class="st1" d="M-382.9-20.4v6 M-385.9-17.4h6 M-385-19.5l4.2,4.2 M-385-15.3l4.2-4.2"/>
			<path class="st1" d="M-327.4,14.2v6 M-330.4,17.2h6 M-329.5,15.1l4.2,4.2 M-329.5,19.3l4.2-4.2"/>
			<path class="st1" d="M-277.3-108.1v6 M-280.3-105.1h6 M-279.4-107.3l4.2,4.2 M-279.4-103l4.2-4.2"/>
			<path class="st1" d="M-256.7-87.6v6 M-259.7-84.6h6 M-258.8-86.7l4.2,4.2 M-258.8-82.5l4.2-4.2"/>
		</g>
	</g>
	<g>
		<g transform="matrix(0.5,0,0,0.4997,102.5,382.0625)">
			<g>
				<defs>
					<rect id="SVGID_00000111888042738373999080000012998278046552346541_" x="-72.8" y="-268.3" width="264.5" height="198.4"/>
				</defs>
				<clipPath id="SVGID_00000064316093876971991220000005112234937298748801_">
					<use xlink:href="#SVGID_00000111888042738373999080000012998278046552346541_"  style="overflow:visible;"/>
				</clipPath>
				<g style="clip-path:url(#SVGID_00000064316093876971991220000005112234937298748801_);enable-background:new    ;">
					
						<image style="overflow:visible;" width="529" height="397" xlink:href="1FDB33A629B16CF1.jpg"  transform="matrix(1 0 0 1 -205 -367.5837)">
					</image>
				</g>
			</g>
		</g>
		<g transform="translate(167.6734,511.3307)">
			<path d="M-102.5-185.9c1.2,0,2.2,1,2.2,2.2l0,0c0,1.2-1,2.2-2.2,2.2s-2.2-1-2.2-2.2S-103.7-185.9-102.5-185.9z M-102.5-189.4
				c-3.2,0-5.8,2.6-5.8,5.8s2.6,5.8,5.8,5.8s5.8-2.6,5.8-5.8l0,0C-96.8-186.9-99.3-189.4-102.5-189.4z"/>
			<path d="M-85.9-182.5c1.2,0,2.2,1,2.2,2.2l0,0c0,1.2-1,2.2-2.2,2.2s-2.2-1-2.2-2.2S-87.2-182.5-85.9-182.5z M-85.9-186
				c-3.2,0-5.8,2.6-5.8,5.8s2.6,5.8,5.8,5.8s5.8-2.6,5.8-5.8l0,0C-80.2-183.4-82.8-186-85.9-186z"/>
			<path d="M-126.5-224.2c1.2,0,2.2,1,2.2,2.2l0,0c0,1.2-1,2.2-2.2,2.2s-2.2-1-2.2-2.2S-127.7-224.2-126.5-224.2z M-126.5-227.7
				c-3.2,0-5.8,2.6-5.8,5.8s2.6,5.8,5.8,5.8s5.8-2.6,5.8-5.8l0,0C-120.8-225.1-123.3-227.7-126.5-227.7z"/>
			<path d="M-116.9-206.4c1.2,0,2.2,1,2.2,2.2l0,0c0,1.2-1,2.2-2.2,2.2s-2.2-1-2.2-2.2S-118.1-206.4-116.9-206.4z M-116.9-209.9
				c-3.2,0-5.8,2.6-5.8,5.8c0,3.2,2.6,5.8,5.8,5.8s5.8-2.6,5.8-5.8l0,0C-111.1-207.3-113.7-209.9-116.9-209.9z"/>
			<path d="M-71.9-179.6c1.2,0,2.2,1,2.2,2.2l0,0c0,1.2-1,2.2-2.2,2.2s-2.2-1-2.2-2.2S-73.1-179.6-71.9-179.6z M-71.9-183.1
				c-3.2,0-5.8,2.6-5.8,5.8s2.6,5.8,5.8,5.8s5.8-2.6,5.8-5.8l0,0C-66.1-180.5-68.7-183.1-71.9-183.1z"/>
			<path d="M-58.6-176.7c1.2,0,2.2,1,2.2,2.2l0,0c0,1.2-1,2.2-2.2,2.2s-2.2-1-2.2-2.2S-59.9-176.7-58.6-176.7z M-58.6-180.2
				c-3.2,0-5.8,2.6-5.8,5.8s2.6,5.8,5.8,5.8c3.2,0,5.8-2.6,5.8-5.8l0,0C-52.9-177.7-55.4-180.2-58.6-180.2z"/>
			<path d="M-122.6-278.7c1.2,0,2.2,1,2.2,2.2l0,0c0,1.2-1,2.2-2.2,2.2s-2.2-1-2.2-2.2C-124.9-277.7-123.9-278.7-122.6-278.7z
				 M-122.6-282.2c-3.2,0-5.8,2.6-5.8,5.8s2.6,5.8,5.8,5.8s5.8-2.6,5.8-5.8l0,0C-116.9-279.6-119.4-282.2-122.6-282.2z"/>
			<path d="M-99.9-167.6c1.2,0,2.2,1,2.2,2.2l0,0c0,1.2-1,2.2-2.2,2.2s-2.2-1-2.2-2.2S-101.1-167.6-99.9-167.6z M-99.9-171.1
				c-3.2,0-5.8,2.6-5.8,5.8s2.6,5.8,5.8,5.8c3.2,0,5.8-2.6,5.8-5.8l0,0C-94.2-168.5-96.7-171.1-99.9-171.1z"/>
			<path d="M-46.6-174.1c1.2,0,2.2,1,2.2,2.2l0,0c0,1.2-1,2.2-2.2,2.2s-2.2-1-2.2-2.2S-47.9-174.1-46.6-174.1z M-46.6-177.6
				c-3.2,0-5.8,2.6-5.8,5.8s2.6,5.8,5.8,5.8c3.2,0,5.8-2.6,5.8-5.8l0,0C-40.9-175-43.4-177.6-46.6-177.6z"/>
			<path d="M-146.2-187.3c1.2,0,2.2,1,2.2,2.2l0,0c0,1.2-1,2.2-2.2,2.2s-2.2-1-2.2-2.2S-147.4-187.3-146.2-187.3z M-146.2-190.8
				c-3.2,0-5.8,2.6-5.8,5.8s2.6,5.8,5.8,5.8s5.8-2.6,5.8-5.8l0,0C-140.4-188.2-143-190.8-146.2-190.8z"/>
			<path d="M-115.9-134.9c1.2,0,2.2,1,2.2,2.2l0,0c0,1.2-1,2.2-2.2,2.2s-2.2-1-2.2-2.2S-117.1-134.9-115.9-134.9z M-115.9-138.4
				c-3.2,0-5.8,2.6-5.8,5.8s2.6,5.8,5.8,5.8c3.2,0,5.8-2.6,5.8-5.8l0,0C-110.1-135.8-112.7-138.4-115.9-138.4z"/>
			<path d="M-70.4-122.3c1.2,0,2.2,1,2.2,2.2l0,0c0,1.2-1,2.2-2.2,2.2c-1.2,0-2.2-1-2.2-2.2S-71.6-122.3-70.4-122.3z M-70.4-125.8
				c-3.2,0-5.8,2.6-5.8,5.8s2.6,5.8,5.8,5.8c3.2,0,5.8-2.6,5.8-5.8l0,0C-64.6-123.2-67.2-125.8-70.4-125.8z"/>
			<path d="M-33.4-172.1c1.2,0,2.2,1,2.2,2.2l0,0c0,1.2-1,2.2-2.2,2.2s-2.2-1-2.2-2.2S-34.6-172.1-33.4-172.1z M-33.4-175.6
				c-3.2,0-5.8,2.6-5.8,5.8s2.6,5.8,5.8,5.8s5.8-2.6,5.8-5.8l0,0C-27.6-173.1-30.2-175.6-33.4-175.6z"/>
			<path class="st0" d="M-102.5-185.9c1.2,0,2.2,1,2.2,2.2l0,0c0,1.2-1,2.2-2.2,2.2s-2.2-1-2.2-2.2S-103.7-185.9-102.5-185.9z
				 M-102.5-189.4c-3.2,0-5.8,2.6-5.8,5.8s2.6,5.8,5.8,5.8s5.8-2.6,5.8-5.8l0,0C-96.8-186.9-99.3-189.4-102.5-189.4z"/>
			<path class="st0" d="M-85.9-182.5c1.2,0,2.2,1,2.2,2.2l0,0c0,1.2-1,2.2-2.2,2.2s-2.2-1-2.2-2.2S-87.2-182.5-85.9-182.5z
				 M-85.9-186c-3.2,0-5.8,2.6-5.8,5.8s2.6,5.8,5.8,5.8s5.8-2.6,5.8-5.8l0,0C-80.2-183.4-82.8-186-85.9-186z"/>
			<path class="st0" d="M-71.9-179.6c1.2,0,2.2,1,2.2,2.2l0,0c0,1.2-1,2.2-2.2,2.2s-2.2-1-2.2-2.2S-73.1-179.6-71.9-179.6z
				 M-71.9-183.1c-3.2,0-5.8,2.6-5.8,5.8s2.6,5.8,5.8,5.8s5.8-2.6,5.8-5.8l0,0C-66.1-180.5-68.7-183.1-71.9-183.1z"/>
			<path class="st0" d="M-58.6-176.7c1.2,0,2.2,1,2.2,2.2l0,0c0,1.2-1,2.2-2.2,2.2s-2.2-1-2.2-2.2S-59.9-176.7-58.6-176.7z
				 M-58.6-180.2c-3.2,0-5.8,2.6-5.8,5.8s2.6,5.8,5.8,5.8c3.2,0,5.8-2.6,5.8-5.8l0,0C-52.9-177.7-55.4-180.2-58.6-180.2z"/>
			<path class="st0" d="M-46.6-174.1c1.2,0,2.2,1,2.2,2.2l0,0c0,1.2-1,2.2-2.2,2.2s-2.2-1-2.2-2.2S-47.9-174.1-46.6-174.1z
				 M-46.6-177.6c-3.2,0-5.8,2.6-5.8,5.8s2.6,5.8,5.8,5.8c3.2,0,5.8-2.6,5.8-5.8l0,0C-40.9-175-43.4-177.6-46.6-177.6z"/>
			<path class="st0" d="M-33.4-172.1c1.2,0,2.2,1,2.2,2.2l0,0c0,1.2-1,2.2-2.2,2.2s-2.2-1-2.2-2.2S-34.6-172.1-33.4-172.1z
				 M-33.4-175.6c-3.2,0-5.8,2.6-5.8,5.8s2.6,5.8,5.8,5.8s5.8-2.6,5.8-5.8l0,0C-27.6-173.1-30.2-175.6-33.4-175.6z"/>
			<path class="st1" d="M-102.5-186.7v6 M-105.5-183.7h6 M-104.6-185.8l4.2,4.2 M-104.6-181.6l4.2-4.2"/>
			<path class="st1" d="M-85.9-183.3v6 M-88.9-180.3h6 M-88.1-182.4l4.2,4.2 M-88.1-178.1l4.2-4.2"/>
			<path class="st1" d="M-126.5-224.9v6 M-129.5-221.9h6 M-128.6-224l4.2,4.2 M-128.6-219.8l4.2-4.2"/>
			<path class="st1" d="M-116.9-207.2v6 M-119.9-204.2h6 M-119-206.3l4.2,4.2 M-119-202l4.2-4.2"/>
			<path class="st1" d="M-71.9-180.3v6 M-74.9-177.3h6 M-74-179.5l4.2,4.2 M-74-175.2l4.2-4.2"/>
			<path class="st1" d="M-58.6-177.5v6 M-61.6-174.5h6 M-60.7-176.6l4.2,4.2 M-60.7-172.4l4.2-4.2"/>
			<path class="st1" d="M-122.6-279.5v6 M-125.6-276.5h6 M-124.7-278.6l4.2,4.2 M-124.7-274.3l4.2-4.2"/>
			<path class="st1" d="M-99.9-168.3v6 M-102.9-165.3h6 M-102-167.5l4.2,4.2 M-102-163.2l4.2-4.2"/>
			<path class="st1" d="M-46.6-174.8v6 M-49.6-171.8h6 M-48.7-173.9l4.2,4.2 M-48.7-169.7l4.2-4.2"/>
			<path class="st1" d="M-146.2-188v6 M-149.2-185h6 M-148.3-187.2l4.2,4.2 M-148.3-182.9l4.2-4.2"/>
			<path class="st1" d="M-115.9-135.7v6 M-118.9-132.7h6 M-118-134.8l4.2,4.2 M-118-130.6l4.2-4.2"/>
			<path class="st1" d="M-70.4-123v6 M-73.4-120h6 M-72.5-122.1l4.2,4.2 M-72.5-117.9l4.2-4.2"/>
			<path class="st1" d="M-33.4-172.9v6 M-36.4-169.9h6 M-35.5-172l4.2,4.2 M-35.5-167.8l4.2-4.2"/>
		</g>
	</g>
	<g>
		<g transform="matrix(0.5,0,0,0.4997,450.5,382.0625)">
			<g>
				<defs>
					<rect id="SVGID_00000003813165069915007780000007268811023678258106_" x="-239.8" y="-268" width="264.5" height="198.4"/>
				</defs>
				<clipPath id="SVGID_00000162311931921106728830000003285948520499530940_">
					<use xlink:href="#SVGID_00000003813165069915007780000007268811023678258106_"  style="overflow:visible;"/>
				</clipPath>
				<g style="clip-path:url(#SVGID_00000162311931921106728830000003285948520499530940_);enable-background:new    ;">
					
						<image style="overflow:visible;" width="529" height="397" xlink:href="1FDB33A629B16CF7.jpg"  transform="matrix(1 0 0 1 -372 -367.2782)">
					</image>
				</g>
			</g>
		</g>
		<g transform="translate(660.8619,472.0646)">
			<path d="M-186-185.8c1.2,0,2.2,1,2.2,2.2l0,0c0,1.2-1,2.2-2.2,2.2s-2.2-1-2.2-2.2S-187.2-185.8-186-185.8z M-186-189.3
				c-3.2,0-5.8,2.6-5.8,5.8s2.6,5.8,5.8,5.8s5.8-2.6,5.8-5.8l0,0C-180.2-186.7-182.8-189.3-186-189.3z"/>
			<path d="M-189.9-197.7c1.2,0,2.2,1,2.2,2.2l0,0c0,1.2-1,2.2-2.2,2.2s-2.2-1-2.2-2.2S-191.2-197.7-189.9-197.7z M-189.9-201.2
				c-3.2,0-5.8,2.6-5.8,5.8s2.6,5.8,5.8,5.8s5.8-2.6,5.8-5.8l0,0C-184.2-198.6-186.7-201.2-189.9-201.2z"/>
			<path d="M-170.8-182.3c1.2,0,2.2,1,2.2,2.2l0,0c0,1.2-1,2.2-2.2,2.2s-2.2-1-2.2-2.2C-173-181.3-172-182.3-170.8-182.3z
				 M-170.8-185.8c-3.2,0-5.8,2.6-5.8,5.8c0,3.2,2.6,5.8,5.8,5.8c3.2,0,5.8-2.6,5.8-5.8l0,0C-165-183.3-167.6-185.8-170.8-185.8z"/>
			<path d="M-325.5-208.9c1.2,0,2.2,1,2.2,2.2l0,0c0,1.2-1,2.2-2.2,2.2s-2.2-1-2.2-2.2S-326.7-208.9-325.5-208.9z M-325.5-212.4
				c-3.2,0-5.8,2.6-5.8,5.8s2.6,5.8,5.8,5.8s5.8-2.6,5.8-5.8l0,0C-319.7-209.8-322.3-212.4-325.5-212.4z"/>
			<path d="M-307.5-197.8c1.2,0,2.2,1,2.2,2.2l0,0c0,1.2-1,2.2-2.2,2.2c-1.2,0-2.2-1-2.2-2.2S-308.7-197.8-307.5-197.8z
				 M-307.5-201.3c-3.2,0-5.8,2.6-5.8,5.8s2.6,5.8,5.8,5.8s5.8-2.6,5.8-5.8l0,0C-301.7-198.7-304.3-201.3-307.5-201.3z"/>
			<path d="M-195.8-208.4c1.2,0,2.2,1,2.2,2.2l0,0c0,1.2-1,2.2-2.2,2.2c-1.2,0-2.2-1-2.2-2.2S-197.1-208.4-195.8-208.4z
				 M-195.8-211.9c-3.2,0-5.8,2.6-5.8,5.8c0,3.2,2.6,5.8,5.8,5.8c3.2,0,5.8-2.6,5.8-5.8l0,0C-190.1-209.4-192.6-211.9-195.8-211.9z"
				/>
			<path d="M-200.5-219.5c1.2,0,2.2,1,2.2,2.2l0,0c0,1.2-1,2.2-2.2,2.2s-2.2-1-2.2-2.2S-201.7-219.5-200.5-219.5z M-200.5-223
				c-3.2,0-5.8,2.6-5.8,5.8c0,3.2,2.6,5.8,5.8,5.8s5.8-2.6,5.8-5.8l0,0C-194.7-220.4-197.3-223-200.5-223z"/>
			<path d="M-260.7-127.5c1.2,0,2.2,1,2.2,2.2l0,0c0,1.2-1,2.2-2.2,2.2c-1.2,0-2.2-1-2.2-2.2S-261.9-127.5-260.7-127.5z M-260.7-131
				c-3.2,0-5.8,2.6-5.8,5.7c0,3.2,2.6,5.8,5.8,5.8s5.8-2.6,5.8-5.8l0,0C-254.9-128.4-257.5-131-260.7-131z"/>
			<path d="M-248.4-159.7c1.2,0,2.2,1,2.2,2.2l0,0c0,1.2-1,2.2-2.2,2.2s-2.2-1-2.2-2.2S-249.6-159.7-248.4-159.7z M-248.4-163.2
				c-3.2,0-5.8,2.6-5.8,5.8s2.6,5.8,5.8,5.8s5.8-2.6,5.8-5.8l0,0C-242.6-160.6-245.2-163.2-248.4-163.2z"/>
			<path d="M-239.9-101.8c1.2,0,2.2,1,2.2,2.2l0,0c0,1.2-1,2.2-2.2,2.2s-2.2-1-2.2-2.2S-241.1-101.8-239.9-101.8z M-239.9-105.3
				c-3.2,0-5.8,2.6-5.8,5.8c0,3.2,2.6,5.8,5.8,5.8s5.8-2.6,5.8-5.8l0,0C-234.1-102.7-236.7-105.3-239.9-105.3z"/>
			<path d="M-205.5-229.6c1.2,0,2.2,1,2.2,2.2l0,0c0,1.2-1,2.2-2.2,2.2s-2.2-1-2.2-2.2S-206.7-229.6-205.5-229.6z M-205.5-233.1
				c-3.2,0-5.8,2.6-5.8,5.8s2.6,5.8,5.8,5.8s5.8-2.6,5.8-5.8l0,0C-199.7-230.6-202.3-233.1-205.5-233.1z"/>
			<path d="M-348.8-256c1.2,0,2.2,1,2.2,2.2l0,0c0,1.2-1,2.2-2.2,2.2s-2.2-1-2.2-2.2S-350-256-348.8-256z M-348.8-259.5
				c-3.2,0-5.8,2.6-5.8,5.8s2.6,5.8,5.8,5.8s5.8-2.6,5.8-5.8l0,0C-343-257-345.6-259.5-348.8-259.5z"/>
			<path d="M-342.1-180.9c1.2,0,2.2,1,2.2,2.2l0,0c0,1.2-1,2.2-2.2,2.2c-1.2,0-2.2-1-2.2-2.2S-343.3-180.9-342.1-180.9z
				 M-342.1-184.4c-3.2,0-5.8,2.6-5.8,5.8s2.6,5.8,5.8,5.8c3.2,0,5.8-2.6,5.8-5.8l0,0C-336.3-181.9-338.9-184.4-342.1-184.4z"/>
			<path d="M-334.7-225.5c1.2,0,2.2,1,2.2,2.2l0,0c0,1.2-1,2.2-2.2,2.2c-1.2,0-2.2-1-2.2-2.2S-336-225.5-334.7-225.5z M-334.7-229
				c-3.2,0-5.8,2.6-5.8,5.8s2.6,5.8,5.8,5.8c3.2,0,5.8-2.6,5.8-5.8l0,0C-329-226.4-331.6-229-334.7-229z"/>
			<path d="M-316.5-252.6c1.2,0,2.2,1,2.2,2.2l0,0c0,1.2-1,2.2-2.2,2.2s-2.2-1-2.2-2.2S-317.8-252.6-316.5-252.6z M-316.5-256.1
				c-3.2,0-5.8,2.6-5.8,5.7s2.6,5.8,5.8,5.8s5.8-2.6,5.8-5.8l0,0C-310.8-253.5-313.4-256.1-316.5-256.1z"/>
			<path d="M-293.8-254.7c1.2,0,2.2,1,2.2,2.2l0,0c0,1.2-1,2.2-2.2,2.2c-1.2,0-2.2-1-2.2-2.2S-295.1-254.7-293.8-254.7z
				 M-293.8-258.2c-3.2,0-5.8,2.6-5.8,5.8s2.6,5.8,5.8,5.8c3.2,0,5.8-2.6,5.8-5.8l0,0C-288.1-255.6-290.7-258.2-293.8-258.2z"/>
			<path d="M-232.3-178c1.2,0,2.2,1,2.2,2.2l0,0c0,1.2-1,2.2-2.2,2.2s-2.2-1-2.2-2.2S-233.5-178-232.3-178z M-232.3-181.5
				c-3.2,0-5.8,2.6-5.8,5.8s2.6,5.8,5.8,5.8s5.8-2.6,5.8-5.8l0,0C-226.6-178.9-229.1-181.5-232.3-181.5z"/>
			<path d="M-205-242.8c1.2,0,2.2,1,2.2,2.2l0,0c0,1.2-1,2.2-2.2,2.2s-2.2-1-2.2-2.2S-206.3-242.8-205-242.8z M-205-246.3
				c-3.2,0-5.8,2.6-5.8,5.8s2.6,5.8,5.8,5.8s5.8-2.6,5.8-5.8l0,0C-199.3-243.7-201.8-246.3-205-246.3z"/>
			<path class="st0" d="M-186-185.8c1.2,0,2.2,1,2.2,2.2l0,0c0,1.2-1,2.2-2.2,2.2s-2.2-1-2.2-2.2S-187.2-185.8-186-185.8z
				 M-186-189.3c-3.2,0-5.8,2.6-5.8,5.8s2.6,5.8,5.8,5.8s5.8-2.6,5.8-5.8l0,0C-180.2-186.7-182.8-189.3-186-189.3z"/>
			<path class="st0" d="M-189.9-197.7c1.2,0,2.2,1,2.2,2.2l0,0c0,1.2-1,2.2-2.2,2.2s-2.2-1-2.2-2.2S-191.2-197.7-189.9-197.7z
				 M-189.9-201.2c-3.2,0-5.8,2.6-5.8,5.8s2.6,5.8,5.8,5.8s5.8-2.6,5.8-5.8l0,0C-184.2-198.6-186.7-201.2-189.9-201.2z"/>
			<path class="st0" d="M-195.8-208.4c1.2,0,2.2,1,2.2,2.2l0,0c0,1.2-1,2.2-2.2,2.2c-1.2,0-2.2-1-2.2-2.2S-197.1-208.4-195.8-208.4z
				 M-195.8-211.9c-3.2,0-5.8,2.6-5.8,5.8c0,3.2,2.6,5.8,5.8,5.8c3.2,0,5.8-2.6,5.8-5.8l0,0C-190.1-209.4-192.6-211.9-195.8-211.9z"
				/>
			<path class="st0" d="M-200.5-219.5c1.2,0,2.2,1,2.2,2.2l0,0c0,1.2-1,2.2-2.2,2.2s-2.2-1-2.2-2.2S-201.7-219.5-200.5-219.5z
				 M-200.5-223c-3.2,0-5.8,2.6-5.8,5.8c0,3.2,2.6,5.8,5.8,5.8s5.8-2.6,5.8-5.8l0,0C-194.7-220.4-197.3-223-200.5-223z"/>
			<path class="st0" d="M-205.5-229.6c1.2,0,2.2,1,2.2,2.2l0,0c0,1.2-1,2.2-2.2,2.2s-2.2-1-2.2-2.2S-206.7-229.6-205.5-229.6z
				 M-205.5-233.1c-3.2,0-5.8,2.6-5.8,5.8s2.6,5.8,5.8,5.8s5.8-2.6,5.8-5.8l0,0C-199.7-230.6-202.3-233.1-205.5-233.1z"/>
			<path class="st0" d="M-205-242.8c1.2,0,2.2,1,2.2,2.2l0,0c0,1.2-1,2.2-2.2,2.2s-2.2-1-2.2-2.2S-206.3-242.8-205-242.8z
				 M-205-246.3c-3.2,0-5.8,2.6-5.8,5.8s2.6,5.8,5.8,5.8s5.8-2.6,5.8-5.8l0,0C-199.3-243.7-201.8-246.3-205-246.3z"/>
			<path class="st1" d="M-186-186.5v6 M-189-183.5h6 M-188.1-185.7l4.2,4.2 M-188.1-181.4l4.2-4.2"/>
			<path class="st1" d="M-189.9-198.4v6 M-192.9-195.4h6 M-192-197.5l4.2,4.2 M-192-193.3l4.2-4.2"/>
			<path class="st1" d="M-170.8-183.1v6 M-173.8-180.1h6 M-172.9-182.2l4.2,4.2 M-172.9-178l4.2-4.2"/>
			<path class="st1" d="M-325.5-209.7v6 M-328.5-206.7h6 M-327.6-208.8l4.2,4.2 M-327.6-204.6l4.2-4.2"/>
			<path class="st1" d="M-307.5-198.5v6 M-310.5-195.5h6 M-309.6-197.7l4.2,4.2 M-309.6-193.4l4.2-4.2"/>
			<path class="st1" d="M-195.8-209.2v6 M-198.8-206.2h6 M-197.9-208.3l4.2,4.2 M-197.9-204.1l4.2-4.2"/>
			<path class="st1" d="M-200.5-220.3v6 M-203.5-217.3h6 M-202.6-219.4l4.2,4.2 M-202.6-215.1l4.2-4.2"/>
			<path class="st1" d="M-260.7-128.2v6 M-263.7-125.2h6 M-262.8-127.4l4.2,4.2 M-262.8-123.1l4.2-4.2"/>
			<path class="st1" d="M-248.4-160.5v6 M-251.4-157.5h6 M-250.5-159.6l4.2,4.2 M-250.5-155.3l4.2-4.2"/>
			<path class="st1" d="M-239.9-102.5v6 M-242.9-99.5h6 M-242-101.6l4.2,4.2 M-242-97.4l4.2-4.2"/>
			<path class="st1" d="M-205.5-230.4v6 M-208.5-227.4h6 M-207.6-229.5l4.2,4.2 M-207.6-225.3l4.2-4.2"/>
			<path class="st1" d="M-348.8-256.8v6 M-351.8-253.8h6 M-350.9-255.9l4.2,4.2 M-350.9-251.7l4.2-4.2"/>
			<path class="st1" d="M-342.1-181.7v6 M-345.1-178.7h6 M-344.2-180.8l4.2,4.2 M-344.2-176.6l4.2-4.2"/>
			<path class="st1" d="M-334.7-226.2v6 M-337.7-223.2h6 M-336.9-225.3l4.2,4.2 M-336.9-221.1l4.2-4.2"/>
			<path class="st1" d="M-316.5-253.3v6 M-319.5-250.3h6 M-318.7-252.4l4.2,4.2 M-318.7-248.2l4.2-4.2"/>
			<path class="st1" d="M-293.8-255.4v6 M-296.8-252.4h6 M-296-254.6l4.2,4.2 M-296-250.3l4.2-4.2"/>
			<path class="st1" d="M-232.3-178.7v6 M-235.3-175.7h6 M-234.4-177.9l4.2,4.2 M-234.4-173.6l4.2-4.2"/>
			<path class="st1" d="M-205-243.6v6 M-208-240.6h6 M-207.1-242.7l4.2,4.2 M-207.1-238.4l4.2-4.2"/>
		</g>
	</g>
</g>
</svg>
